<?xml version="1.0" standalone="no"?>
<!DOCTYPE svg PUBLIC "-//W3C//DTD SVG 20010904//EN"
 "http://www.w3.org/TR/2001/REC-SVG-20010904/DTD/svg10.dtd">
<svg version="1.0" xmlns="http://www.w3.org/2000/svg"
 width="657.000000pt" height="657.000000pt" viewBox="0 0 657.000000 657.000000"
 preserveAspectRatio="xMidYMid meet">
<metadata>
Created by potrace 1.14, written by Peter Selinger 2001-2017
</metadata>
<g transform="translate(0.000000,657.000000) scale(0.100000,-0.100000)"
fill="#000000" stroke="none">
<path d="M3128 6405 c-2 -1 -50 -6 -108 -10 -58 -4 -107 -8 -110 -10 -3 -1
-33 -6 -67 -9 -35 -4 -68 -8 -75 -11 -7 -2 -29 -6 -48 -9 -166 -24 -437 -103
-631 -184 -903 -379 -1562 -1126 -1822 -2067 -100 -360 -134 -784 -92 -1150
11 -97 15 -131 19 -150 2 -11 7 -40 11 -65 19 -117 61 -286 105 -419 395
-1210 1486 -2061 2750 -2147 147 -10 241 -11 246 -2 3 4 13 4 22 0 9 -5 26 -8
37 -7 11 1 70 5 130 9 179 11 431 52 590 98 39 11 84 23 100 27 49 13 185 61
270 97 390 160 720 379 1021 679 350 348 594 736 753 1199 64 185 101 337 135
551 38 239 42 608 11 855 -73 563 -312 1125 -665 1561 -196 242 -510 528 -719
654 -9 6 -46 29 -82 51 -299 190 -722 350 -1089 413 -110 19 -149 24 -270 37
-55 6 -417 14 -422 9z"/>
</g>
</svg>
